<svg id="Layer_1" data-name="Layer 1" xmlns="http://www.w3.org/2000/svg" viewBox="0 0 1920 1080"><defs><style>.cls-1{fill:#094d66;}.cls-2{fill:#00a099;}.cls-3{fill:#51bab4;}.cls-4{fill:#a2195b;}.cls-5{fill:#d60b51;}.cls-6{fill:#f29100;}.cls-7{fill:#f8b133;}</style></defs><title>Artboard 1</title><path class="cls-1" d="M674.36,430.92c24.62,0,51.29,3.1,73.4,8.84v26.67c-.29,0-39.23-3.64-67.26-3.64-32.35,0-44.49,10.43-44.49,77.49,0,48,9,76.91,44.59,76.91,30.71,0,67.16-2.26,67.16-2.26V641.6c-19.65,5.13-48.37,7.77-73.4,7.46-54.09-.31-72.27-43.32-72.27-109.36C602.09,471.27,616.17,430.92,674.36,430.92Z"/><path class="cls-1" d="M776.11,433.26H810v94.59H894V433.26h33.92v214H894V559.73H810V647.3H776.11Z"/><path class="cls-1" d="M1028.22,433.26h37.5l71.58,214h-37.1l-16.38-51.87h-75.66L991.32,647.3H953.66Zm46.67,131.22L1047,479.6l-29.24,84.88Z"/><path class="cls-1" d="M1125.36,433.26h154.69v31.87h-61.26V647.3h-33.92V465.13h-59.51Z"/><path class="cls-1" d="M1306.5,433.26h86.15c43.72,0,58.63,28.3,58.63,56.58,0,20.41-7.58,41.55-28.44,46.35,16,3.13,31,20,31,49.42,0,36.17-15.69,61.69-60.72,61.69H1306.5Zm84.61,87.14c17.33,0,26.66-10,26.66-28.41,0-22.94-14.52-27.88-26.66-27.88h-50.49V520.4Zm1,96.05c13,0,27.82-5.13,27.82-32.25,0-17.85-7.86-34-27.82-34h-51.52v66.23Z"/><path class="cls-1" d="M1563.55,431.8c50.59,0,84.61,9.64,84.61,109.94,0,94.45-32,106.73-84.61,106.73s-85-9.36-85-106.73C1478.56,441.44,1514.43,431.8,1563.55,431.8Zm0,184.8c38.46,0,50.69-11.67,50.69-74.86,0-74.23-15.52-78.07-50.69-78.07-34.28,0-51.07,2.92-51.07,78.07C1512.48,606.25,1523.49,616.6,1563.55,616.6Z"/><path class="cls-1" d="M1698.65,433.26l45,79.12,45.72-79.12h37.4l-63.88,106.38,62.42,107.66h-37.41l-44.25-78.6-44.08,78.6h-37.4l62.14-107.66-63-106.38Z"/><path class="cls-2" d="M301.84,690.57l-97.3-56.17-89.19,51.51L301.84,793.56c12.13,7,32,7,44.14,0v-103C333.84,697.59,314,697.59,301.84,690.57Z"/><path class="cls-3" d="M443.28,634.4l-20.57,11.88,16.53,93.45,93.23-53.82c12.14-7,22.08-24.22,22.08-38.24l-89.2-51.5C465.35,610.18,455.42,627.39,443.28,634.4Z"/><polygon class="cls-3" points="366.54 678.71 345.98 690.57 345.98 793.57 439.23 739.73 366.54 678.71"/><path class="cls-4" d="M93.29,647.67c0,14,9.91,31.22,22.06,38.24l89.19-51.51c-12.13-7-22.06-24.22-22.06-38.23V483.83l-89.21-51.5Z"/><path class="cls-5" d="M115.35,394.1c-12.15,7-22.06,24.21-22.08,38.23l89.21,51.5c0-14,9.93-31.22,22.06-38.23l97.3-56.18v-103Z"/><path class="cls-6" d="M346,286.43c-12.14-7-32-7-44.14,0v103c12.13-7,32-7,44.14,0l97.3,56.19,89.19-51.51Z"/><path class="cls-7" d="M532.47,394.1l-89.19,51.51c12.14,7,22.07,24.21,22.07,38.22V596.17l89.2,51.5V432.33C554.55,418.31,544.61,401.12,532.47,394.1Z"/></svg>